HIERARCHY
ROOT hip
{
  OFFSET 0 0 0
  CHANNELS 6 Xposition Yposition Zposition Zrotation Yrotation Xrotation
  JOINT abdomen
  {
    OFFSET 0 20.6881 -0.73152
    CHANNELS 3 Zrotation Xrotation Yrotation
    JOINT chest
    {
      OFFSET 0 11.7043 -0.48768
      CHANNELS 3 Zrotation Xrotation Yrotation
      JOINT neck
      {
        OFFSET 0 22.1894 -2.19456
        CHANNELS 3 Zrotation Xrotation Yrotation
        JOINT head
        {
          OFFSET -0.24384 7.07133 1.2192
          CHANNELS 3 Zrotation Xrotation Yrotation
          JOINT leftEye
          {
            OFFSET 4.14528 8.04674 8.04672
            CHANNELS 3 Zrotation Xrotation Yrotation
            End Site
            {
              OFFSET 1 0 0
            }
          }
          JOINT rightEye
          {
            OFFSET -3.6576 8.04674 8.04672
            CHANNELS 3 Zrotation Xrotation Yrotation
            End Site
            {
              OFFSET 1 0 0
            }
          }
        }
      }
      JOINT rCollar
      {
        OFFSET -2.68224 19.2634 -4.8768
        CHANNELS 3 Zrotation Xrotation Yrotation
        JOINT rShldr
        {
          OFFSET -8.77824 -1.95073 1.46304
          CHANNELS 3 Zrotation Xrotation Yrotation
          JOINT rForeArm
          {
            OFFSET -28.1742 -1.7115 0.48768
            CHANNELS 3 Zrotation Xrotation Yrotation
            JOINT rHand
            {
              OFFSET -22.5879 0.773209 7.07136
              CHANNELS 3 Zrotation Xrotation Yrotation
              JOINT rThumb1
              {
                OFFSET -1.2192 -0.487915 3.41376
                CHANNELS 3 Zrotation Xrotation Yrotation
                JOINT rThumb2
                {
                  OFFSET -3.37035 -0.52449 3.41376
                  CHANNELS 3 Zrotation Xrotation Yrotation
                  End Site
                  {
                    OFFSET -1.78271 -1.18214 1.43049
                  }
                }
              }
              JOINT rIndex1
              {
                OFFSET -7.75947 0.938293 5.60832
                CHANNELS 3 Zrotation Xrotation Yrotation
                JOINT rIndex2
                {
                  OFFSET -2.54057 -0.884171 1.56538
                  CHANNELS 3 Zrotation Xrotation Yrotation
                  End Site
                  {
                    OFFSET -1.62519 -0.234802 1.16502
                  }
                }
              }
              JOINT rMid1
              {
                OFFSET -8.24714 1.18213 3.41376
                CHANNELS 3 Zrotation Xrotation Yrotation
                JOINT rMid2
                {
                  OFFSET -3.10165 -0.590103 1.0647
                  CHANNELS 3 Zrotation Xrotation Yrotation
                  End Site
                  {
                    OFFSET -2.48547 -0.328903 0.83742
                  }
                }
              }
              JOINT rRing1
              {
                OFFSET -8.82822 0.546677 1.51678
                CHANNELS 3 Zrotation Xrotation Yrotation
                JOINT rRing2
                {
                  OFFSET -2.60934 -0.819778 -0.0198488
                  CHANNELS 3 Zrotation Xrotation Yrotation
                  End Site
                  {
                    OFFSET -2.33842 -0.294052 0.168128
                  }
                }
              }
              JOINT rPinky1
              {
                OFFSET -8.27202 -0.0477905 -0.4584
                CHANNELS 3 Zrotation Xrotation Yrotation
                JOINT rPinky2
                {
                  OFFSET -1.82734 -0.647385 -0.700984
                  CHANNELS 3 Zrotation Xrotation Yrotation
                  End Site
                  {
                    OFFSET -1.69225 -0.51767 -0.607171
                  }
                }
              }
            }
          }
        }
      }
      JOINT lCollar
      {
        OFFSET 2.68224 19.2634 -4.8768
        CHANNELS 3 Zrotation Xrotation Yrotation
        JOINT lShldr
        {
          OFFSET 8.77824 -1.95073 1.46304
          CHANNELS 3 Zrotation Xrotation Yrotation
          JOINT lForeArm
          {
            OFFSET 28.1742 -1.7115 0.48768
            CHANNELS 3 Zrotation Xrotation Yrotation
            JOINT lHand
            {
              OFFSET 22.5879 0.773209 7.07136
              CHANNELS 3 Zrotation Xrotation Yrotation
              JOINT lThumb1
              {
                OFFSET 1.2192 -0.487915 3.41376
                CHANNELS 3 Zrotation Xrotation Yrotation
                JOINT lThumb2
                {
                  OFFSET 3.37035 -0.52449 3.41376
                  CHANNELS 3 Zrotation Xrotation Yrotation
                  End Site
                  {
                    OFFSET 1.78271 -1.18214 1.43049
                  }
                }
              }
              JOINT lIndex1
              {
                OFFSET 7.75947 0.938293 5.60832
                CHANNELS 3 Zrotation Xrotation Yrotation
                JOINT lIndex2
                {
                  OFFSET 2.54057 -0.884171 1.56538
                  CHANNELS 3 Zrotation Xrotation Yrotation
                  End Site
                  {
                    OFFSET 1.62519 -0.234802 1.16502
                  }
                }
              }
              JOINT lMid1
              {
                OFFSET 8.24714 1.18213 3.41376
                CHANNELS 3 Zrotation Xrotation Yrotation
                JOINT lMid2
                {
                  OFFSET 3.10165 -0.590103 1.0647
                  CHANNELS 3 Zrotation Xrotation Yrotation
                  End Site
                  {
                    OFFSET 2.48547 -0.328903 0.83742
                  }
                }
              }
              JOINT lRing1
              {
                OFFSET 8.82822 0.546677 1.51678
                CHANNELS 3 Zrotation Xrotation Yrotation
                JOINT lRing2
                {
                  OFFSET 2.60934 -0.819778 -0.0198488
                  CHANNELS 3 Zrotation Xrotation Yrotation
                  End Site
                  {
                    OFFSET 2.33842 -0.294052 0.168128
                  }
                }
              }
              JOINT lPinky1
              {
                OFFSET 8.27202 -0.0477905 -0.4584
                CHANNELS 3 Zrotation Xrotation Yrotation
                JOINT lPinky2
                {
                  OFFSET 1.82734 -0.647385 -0.700984
                  CHANNELS 3 Zrotation Xrotation Yrotation
                  End Site
                  {
                    OFFSET 1.69225 -0.51767 -0.607171
                  }
                }
              }
            }
          }
        }
      }
    }
  }
  JOINT rButtock
  {
    OFFSET -8.77824 4.35084 1.2192
    CHANNELS 3 Zrotation Xrotation Yrotation
    JOINT rThigh
    {
      OFFSET 0 -1.70687 -2.19456
      CHANNELS 3 Zrotation Xrotation Yrotation
      JOINT rShin
      {
        OFFSET 0 -36.8199 0.73152
        CHANNELS 3 Zrotation Xrotation Yrotation
        JOINT rFoot
        {
          OFFSET 0.73152 -45.1104 -5.12064
          CHANNELS 3 Zrotation Xrotation Yrotation
          End Site
          {
            OFFSET -1.1221 -3.69964 12.103
          }
        }
      }
    }
  }
  JOINT lButtock
  {
    OFFSET 8.77824 4.35084 1.2192
    CHANNELS 3 Zrotation Xrotation Yrotation
    JOINT lThigh
    {
      OFFSET 0 -1.70687 -2.19456
      CHANNELS 3 Zrotation Xrotation Yrotation
      JOINT lShin
      {
        OFFSET 0 -36.8199 0.73152
        CHANNELS 3 Zrotation Xrotation Yrotation
        JOINT lFoot
        {
          OFFSET -0.73152 -45.1104 -5.12064
          CHANNELS 3 Zrotation Xrotation Yrotation
          End Site
          {
            OFFSET 1.1221 -3.69964 12.103
          }
        }
      }
    }
  }
}
MOTION
Frames:	4
Frame Time:	0.00833333
38.7342 81.3386 17.0353 23.015 -43.7055 -4.1397 -12.351 14.7554 -3.53263 3.68111 -6.14008 -1.16198 -10.8311 -1.42635 -0.844662 8.88974 -13.564 2.67908 -0.0 0.0 0.0 -0.0 0.0 0.0 5.91674e-13 8.53201e-13 2.83218e-13 100.488 45.7263 -31.5733 -26.5713 -45.0743 93.6133 -0.0230286 -4.32798 -0.60943 1.74544e-09 -1.35203e-08 -6.65446e-09 3.0365e-09 -2.3417e-08 -1.15113e-08 1.74544e-09 -1.35203e-08 -6.65447e-09 7.73091 5.47488 0.417314 1.74544e-09 -1.35203e-08 -6.65446e-09 2.90554 0.965183 0.102902 1.74544e-09 -1.35203e-08 -6.65446e-09 10.2786 0.731801 0.0259123 1.74543e-09 -1.35203e-08 -6.65445e-09 2.22167 -0.733487 -0.20892 5.91432e-13 8.53165e-13 2.8292e-13 -92.6338 46.3663 12.8227 27.5715 -42.2544 -88.0657 1.37221 -31.282 4.89843 3.94069e-09 7.96773e-09 6.2183e-09 6.6591e-09 1.3834e-08 1.0823e-08 3.94069e-09 7.96771e-09 6.21831e-09 -7.73091 5.47488 -0.417314 3.94069e-09 7.96773e-09 6.2183e-09 -2.90554 0.965183 -0.102902 3.94069e-09 7.96773e-09 6.2183e-09 -10.2786 0.731801 -0.0259123 3.94069e-09 7.96773e-09 6.21829e-09 -2.22167 -0.733487 0.20892 -2.03217e-16 0.0 -3.88251e-19 3.45077 -55.9662 -6.61954 -0.497151 45.2386 0.625845 0.178675 -1.35702 4.61019 2.03217e-16 0.0 3.88251e-19 -11.6933 6.67013 -2.6656 0.0790959 27.0276 -0.858288 4.47313 20.3176 -13.6137
37.5733 81.7433 20.0698 24.2725 -43.5532 -4.877 -12.2635 14.5534 -3.43822 3.92109 -5.98291 -1.11532 -11.0075 -1.26295 -1.07435 8.47656 -13.4537 2.18025 -0.0 0.0 0.0 -0.0 0.0 0.0 5.54664e-13 8.87758e-13 3.51272e-13 99.5639 44.955 -31.0979 -26.5961 -45.0155 93.4954 -0.0206816 -4.12394 -0.580578 1.28299e-09 -1.20831e-08 -6.1298e-09 2.23478e-09 -2.0929e-08 -1.06046e-08 1.283e-09 -1.20831e-08 -6.12982e-09 7.73091 5.47488 0.417314 1.283e-09 -1.20831e-08 -6.12981e-09 2.90554 0.965183 0.102902 1.283e-09 -1.20831e-08 -6.12981e-09 10.2786 0.731801 0.0259123 1.28298e-09 -1.20831e-08 -6.1298e-09 2.22167 -0.733487 -0.20892 5.54467e-13 8.87723e-13 3.50963e-13 -92.871 46.1933 13.3628 27.7861 -41.507 -86.5874 1.34455 -31.0068 4.84529 3.21044e-09 6.49538e-09 5.14609e-09 5.42215e-09 1.12784e-08 8.95641e-09 3.21044e-09 6.49537e-09 5.1461e-09 -7.73091 5.47488 -0.417314 3.21044e-09 6.49538e-09 5.14609e-09 -2.90554 0.965183 -0.102902 3.21044e-09 6.49538e-09 5.1461e-09 -10.2786 0.731801 -0.0259123 3.21045e-09 6.49539e-09 5.14609e-09 -2.22167 -0.733487 0.20892 -2.03217e-16 0.0 -3.88251e-19 3.58875 -54.5916 -6.72977 -0.413745 41.3551 0.421455 -0.0127211 0.345411 4.08705 2.03217e-16 0.0 3.88251e-19 -11.9893 6.24522 -2.00631 0.127043 29.0507 -0.813716 3.98262 20.968 -11.6931
36.3216 82.0265 22.9981 24.987 -43.4229 -5.2146 -12.1159 14.2686 -3.2383 4.30287 -5.85534 -1.02505 -11.3405 -1.08554 -1.41337 8.13221 -13.3007 1.51339 -0.0 0.0 0.0 -0.0 0.0 0.0 3.64732e-13 7.94804e-13 6.2278e-13 98.4142 43.9527 -30.5288 -26.6284 -44.9362 93.3392 -0.0150685 -3.57604 -0.503198 8.24474e-11 -8.76809e-09 -5.1208e-09 1.53673e-10 -1.51865e-08 -8.85894e-09 8.24569e-11 -8.7681e-09 -5.12081e-09 7.73091 5.47488 0.417314 8.24495e-11 -8.76811e-09 -5.12081e-09 2.90554 0.965183 0.102902 8.24542e-11 -8.7681e-09 -5.12081e-09 10.2786 0.731801 0.0259123 8.24401e-11 -8.7681e-09 -5.1208e-09 2.22167 -0.733487 -0.20892 3.64608e-13 7.94777e-13 6.22466e-13 -93.232 46.1248 13.8511 27.9832 -40.6349 -84.9675 1.29847 -30.533 4.75488 1.48266e-09 3.89406e-09 3.13934e-09 2.48223e-09 6.75143e-09 5.45663e-09 1.48266e-09 3.89405e-09 3.13935e-09 -7.73091 5.47488 -0.417314 1.48265e-09 3.89406e-09 3.13934e-09 -2.90554 0.965183 -0.102902 1.48265e-09 3.89406e-09 3.13935e-09 -10.2786 0.731801 -0.0259123 1.48267e-09 3.89406e-09 3.13934e-09 -2.22167 -0.733487 0.20892 -2.03217e-16 0.0 -3.88251e-19 3.68588 -53.3138 -6.57325 -0.355127 38.123 0.228278 -0.207262 1.99369 3.01109 2.03217e-16 0.0 3.88251e-19 -11.9188 5.23643 -0.912366 0.185312 32.1106 -0.767741 2.7049 20.2445 -7.87914
35.0197 82.2469 25.842 25.3012 -43.3493 -5.2365 -11.8936 13.988 -2.99889 4.66749 -5.71416 -0.921294 -11.646 -0.896606 -1.77295 7.85393 -13.1743 0.8073 -0.0 0.0 0.0 -0.0 0.0 0.0 1.37577e-13 6.36026e-13 8.94679e-13 97.2074 42.9762 -29.8285 -26.6766 -44.8221 93.1074 -0.0107785 -3.01165 -0.423632 -1.15927e-09 -5.09592e-09 -3.95477e-09 -1.99916e-09 -8.82457e-09 -6.84126e-09 -1.15926e-09 -5.09593e-09 -3.95478e-09 7.73091 5.47488 0.417314 -1.15927e-09 -5.09594e-09 -3.95478e-09 2.90554 0.965183 0.102902 -1.15927e-09 -5.09593e-09 -3.95478e-09 10.2786 0.731801 0.0259123 -1.15928e-09 -5.09593e-09 -3.95478e-09 2.22167 -0.733487 -0.20892 1.37525e-13 6.36009e-13 8.94368e-13 -93.605 46.0165 14.3608 28.1361 -39.7181 -83.3625 1.24236 -29.9398 4.64298 -3.18506e-10 1.31042e-09 1.10321e-09 -5.8348e-10 2.2529e-09 1.90458e-09 -3.18508e-10 1.31042e-09 1.10321e-09 -7.73091 5.47488 -0.417314 -3.18512e-10 1.31041e-09 1.10319e-09 -2.90554 0.965183 -0.102902 -3.18509e-10 1.31042e-09 1.10321e-09 -10.2786 0.731801 -0.0259123 -3.18495e-10 1.31042e-09 1.1032e-09 -2.22167 -0.733487 0.20892 -2.03217e-16 0.0 -3.88251e-19 3.7932 -52.0326 -6.28204 -0.322047 35.604 0.0605013 -0.339589 3.55645 1.94482 2.03217e-16 0.0 3.88251e-19 -11.5255 3.83603 0.294762 0.250594 35.7598 -0.734486 1.42122 18.9942 -3.67182
